<svg width="428" height="190" viewBox="0 0 428 190" fill="none" xmlns="http://www.w3.org/2000/svg">
<g clip-path="url(#clip0_106_1099)">
<rect width="428" height="190" fill="#CB8D05"/>
<path opacity="0.05" fill-rule="evenodd" clip-rule="evenodd" d="M161.384 4.99829V17.8061C155.914 20.9275 147.901 25.1109 138.858 28.4899H108.255V-248H136.509V4.99829H161.384ZM231.955 -242.947C226.098 -246.294 218.568 -247.999 209.364 -247.999H172.229V11.7573C172.755 11.573 173.456 11.3494 174.3 11.08C179.812 9.32183 191.438 5.61255 200.451 -1.7262V-225.473H207.369C210.652 -225.473 213.355 -224.669 215.35 -223.092C217.409 -221.515 218.89 -219.134 219.823 -215.981C220.724 -212.859 221.175 -208.676 221.175 -203.559V-15.3708C221.175 -10.4793 220.724 -6.48885 219.823 -3.43211C219.244 -1.50098 218.439 0.0755985 217.442 1.39517C216.605 2.29608 215.704 3.16523 214.739 4.00148L214.449 4.19492V4.25902C207.057 10.5907 196.486 15.0608 179.627 22.1899L179.566 22.2158C163.501 29.0152 150.632 35.8717 139.632 41.7319C118.615 52.9281 104.424 60.4883 87.8207 57.0662C62.5273 51.8531 45.1821 57.903 45.1821 57.903C72.4066 59.5443 105.97 70.2922 105.97 70.2922C85.3426 95.0386 64.1686 90.63 27.6122 79.9144C-8.97647 69.1984 -26 83.4863 -26 83.4863C-14.737 78.8201 14.1611 78.2732 35.0458 90.3724C55.9305 102.472 85.0856 99.4472 85.0856 99.4472C55.3831 122.552 4.79635 115.956 4.79635 115.956C83.9913 139.608 124.956 76.3421 124.956 76.3421C116.429 102.472 121.384 121.716 121.384 121.716C132.695 64.628 160.6 55.0726 208.965 38.5108C210.001 38.1558 211.045 37.798 212.1 37.4364C230.571 31.0972 240.097 19.9953 244.891 8.73232C244.923 8.65149 244.964 8.5793 245.004 8.5071L245.004 8.50603C245.044 8.43383 245.084 8.36162 245.116 8.28188C245.152 8.18704 245.187 8.08843 245.223 7.9882L245.261 7.87939C245.31 7.74253 245.358 7.60566 245.406 7.47688C245.889 6.19018 246.339 4.93473 246.725 3.67981L247.208 2.03854C247.691 0.300844 248.045 -1.40452 248.335 -3.10989C248.335 -3.17455 248.335 -3.27101 248.366 -3.33513C248.72 -5.49149 248.978 -7.58319 249.107 -9.57844L249.124 -9.88771C249.131 -10.0256 249.139 -10.1641 249.146 -10.3042L249.164 -10.6453C249.177 -10.8889 249.19 -11.1346 249.203 -11.3803V-11.8307L249.207 -11.9175L249.208 -11.9186C249.303 -13.7549 249.396 -15.5626 249.396 -17.5266V-201.371C249.396 -211.894 247.948 -220.614 245.052 -227.533C242.156 -234.484 237.747 -239.6 231.89 -242.947H231.955ZM92.648 -247.999H64.3938V28.4904H92.648V-247.999ZM265.036 -247.999H293.29V28.4904H265.036V-247.999ZM343.652 5.9644C339.05 5.9644 335.285 6.02907 332.389 6.15785L331.391 4.58072C333.097 -1.46863 334.48 -7.93719 335.542 -14.7592L369.911 -229.432V-247.999H307.513V-225.473H329.042C334.19 -225.473 338.438 -225.538 341.882 -225.666L342.686 -224.09C341.109 -218.297 339.597 -210.864 338.149 -201.789L303.78 9.92259V28.4904H371.327V5.9644H343.684H343.652ZM188.45 60.3261L188.448 60.2981L188.447 60.2825H188.544C188.544 60.2825 188.531 60.2878 188.507 60.2991C188.492 60.3062 188.473 60.3148 188.45 60.3261ZM188.45 60.3261C188.487 61.0789 188.85 71.4673 180.885 81.1995C172.614 91.304 178.407 103.371 187.61 105.173C189.907 105.623 193.903 105.57 198.803 105.505H198.804C213.545 105.309 236.462 105.004 245.857 117.949C245.857 117.949 235.333 110.548 209.332 110.548C183.331 110.548 180.885 110.773 180.885 110.773C180.885 110.773 186.484 121.07 208.238 126.895C229.991 132.72 226.162 143.017 226.162 143.017C226.162 143.017 224.585 135.616 210.265 132.719C195.945 129.823 184.94 124.868 184.94 124.868C184.94 124.868 184.264 152.413 157.394 151.995C157.394 151.995 179.566 147.072 179.115 124.643L168.592 107.169C168.592 107.169 162.317 117.692 155.366 121.07C148.415 124.449 140.564 129.598 139.695 137.193C139.695 137.193 137.442 128.021 154.498 113.669C165.121 104.729 165.819 96.6632 166.46 89.2533C166.848 84.7676 167.214 80.5222 169.751 76.4692C176.129 66.2758 187.311 60.8585 188.45 60.3261ZM248.174 31.8036L248.172 31.8052L248.142 31.7713L248.174 31.8036ZM248.172 31.8052C249.4 33.1765 287.565 75.5193 320.965 80.3627C338.405 82.892 348.304 77.9909 358.532 72.927C368.215 68.1331 378.192 63.1932 395.14 64.273C429.99 66.4934 453.127 57.9014 453.127 57.9014C453.127 57.9014 444.985 68.7781 421.977 69.6148C394.721 69.1644 375.06 75.8577 368.366 79.88C361.672 83.9028 348.704 89.277 348.704 89.277C366.113 100.893 418.406 98.6735 418.406 98.6735C351.825 114.313 301.11 88.1827 301.11 88.1827C301.11 127.506 329.492 150.29 329.492 150.29C329.492 150.29 298.439 132.205 288.624 101.601C278.777 70.9985 248.174 63.1786 248.174 63.1786C243.475 99.1557 270.507 116.791 270.507 116.791C244.958 108.555 240.849 86.6804 237.544 69.0798C237.44 68.5243 237.336 67.9731 237.233 67.4267C233.854 49.5664 225.712 48.2797 225.712 48.2797C236.32 44.0936 248.007 31.9766 248.172 31.8052Z" fill="white"/>
</g>
<defs>
<clipPath id="clip0_106_1099">
<rect width="428" height="190" fill="white"/>
</clipPath>
</defs>
</svg>
